<svg width="48" height="50" viewBox="0 0 48 50" fill="none" xmlns="http://www.w3.org/2000/svg">
<rect width="48" height="50" fill="white"/>
<path d="M2.79 6.945L2.9 11.62V40H0.26V0.344999H1.47L27.375 30.21C29.135 32.3 30.4917 33.9683 31.445 35.215C31.2983 33.455 31.225 31.4383 31.225 29.165V0.674998H33.865V40.33H32.655L6.255 9.915C4.42167 7.825 3.24833 6.43167 2.735 5.735L2.79 6.945Z" fill="black"/>
<path d="M36.56 49.576C31.568 49.576 27.28 47.88 23.696 44.488C20.112 41.064 18.32 36.856 18.32 31.864C18.32 26.84 19.888 22.632 23.024 19.24C26.16 15.816 30.176 14.104 35.072 14.104C38.912 14.104 42.8 14.744 46.736 16.024L46.112 17.944C42.272 16.792 38.592 16.216 35.072 16.216C30.88 16.216 27.456 17.72 24.8 20.728C22.144 23.736 20.816 27.416 20.816 31.768C20.816 36.12 22.352 39.832 25.424 42.904C28.528 45.944 32.24 47.464 36.56 47.464C40.336 47.464 43.6 46.888 46.352 45.736L47.072 47.368C45.856 48.072 44.256 48.616 42.272 49C40.32 49.384 38.416 49.576 36.56 49.576Z" fill="black"/>
</svg>
