<svg width="60" height="69" viewBox="0 0 60 69" fill="none" xmlns="http://www.w3.org/2000/svg">
<rect width="60" height="69" fill="white"/>
<path d="M49.26 0.699996V1.26L44.22 1.82C43.1 1.96 42.3533 2.24 41.98 2.66C41.6067 3.08 41.42 3.85 41.42 4.97V50.12H40.72L9.29 5.53H9.01V44.73C9.01 45.85 9.15 46.6433 9.43 47.11C9.71 47.53 10.27 47.7867 11.11 47.88L16.08 48.44V49H0.75V48.44L5.79 47.88C6.63 47.7867 7.19 47.53 7.47 47.11C7.75 46.6433 7.89 45.85 7.89 44.73V3.99L7.61 3.57C6.95667 2.63666 6.32667 2.03 5.72 1.75C5.16 1.42333 4.32 1.26 3.2 1.26H2.01V0.699996H12.44L40.02 39.34H40.3V4.97C40.3 3.85 40.16 3.05666 39.88 2.59C39.6 2.12333 39.04 1.86666 38.2 1.82L32.53 1.26V0.699996H49.26Z" fill="black"/>
<path d="M49.056 65.912C50.8907 65.1013 52.4267 64.0133 53.664 62.648C55.7547 60.3013 57.3333 56.8027 58.4 52.152L59.232 52.28V67H58.4L56.224 63.48C54.304 64.888 52.2133 65.9973 49.952 66.808C47.7333 67.6187 45.5787 68.024 43.488 68.024C39.776 68.024 36.3627 67 33.248 64.952C30.176 62.904 27.744 60.1307 25.952 56.632C24.2027 53.0907 23.328 49.1867 23.328 44.92C23.328 40.696 24.2027 36.8133 25.952 33.272C27.744 29.7307 30.176 26.936 33.248 24.888C36.32 22.84 39.6907 21.816 43.36 21.816C45.28 21.816 47.2427 22.136 49.248 22.776C51.296 23.3733 53.5573 24.3333 56.032 25.656L57.568 22.584H58.4L59.04 36.984L58.144 37.24C57.5467 33.9547 56.608 31.2453 55.328 29.112C54.048 27.0213 52.384 25.4213 50.336 24.312C48.288 23.16 46.0267 22.584 43.552 22.584C39.0293 22.584 35.552 24.5253 33.12 28.408C30.688 32.2907 29.472 37.7947 29.472 44.92C29.472 52.0027 30.688 57.4853 33.12 61.368C35.552 65.208 39.008 67.128 43.488 67.128C45.408 67.128 47.264 66.7227 49.056 65.912Z" fill="black"/>
</svg>
