<svg width="463" height="43" viewBox="0 0 463 43" fill="none" xmlns="http://www.w3.org/2000/svg">
<path d="M2.544 13.152L2.64 17.232V42H0.336V7.392H1.392L24 33.456C25.536 35.28 26.72 36.736 27.552 37.824C27.424 36.288 27.36 34.528 27.36 32.544V7.68H29.664V42.288H28.608L5.568 15.744C3.968 13.92 2.944 12.704 2.496 12.096L2.544 13.152ZM42.336 42V7.68H44.64V42H42.336ZM77.9291 7.68L63.3371 24.288C65.2891 26.624 67.5291 29.232 70.0571 32.112C72.6171 34.992 74.2651 36.768 75.0011 37.44C75.7691 38.112 76.3611 38.624 76.7771 38.976C77.2251 39.296 77.8971 39.664 78.7931 40.08C79.6891 40.464 80.6491 40.72 81.6731 40.848L81.6251 42.384C79.7051 42.352 78.1211 42.064 76.8731 41.52C75.6251 40.944 74.5371 40.208 73.6091 39.312C72.6811 38.384 70.6491 36.144 67.5131 32.592C64.4091 29.008 62.0731 26.272 60.5051 24.384L75.2411 7.68H77.9291ZM59.5931 7.68V42H57.2891V7.68H59.5931ZM88.1501 37.44C84.9821 34.016 83.3981 29.808 83.3981 24.816C83.3981 19.824 84.9821 15.632 88.1501 12.24C91.3501 8.816 95.3821 7.104 100.246 7.104C105.11 7.104 109.142 8.816 112.342 12.24C115.542 15.632 117.142 19.824 117.142 24.816C117.142 29.808 115.542 34.016 112.342 37.44C109.142 40.864 105.11 42.576 100.246 42.576C95.3821 42.576 91.3501 40.864 88.1501 37.44ZM89.8781 13.728C87.2221 16.704 85.8941 20.4 85.8941 24.816C85.8941 29.232 87.2221 32.944 89.8781 35.952C92.5661 38.96 96.0221 40.464 100.246 40.464C104.502 40.464 107.958 38.96 110.614 35.952C113.302 32.944 114.646 29.232 114.646 24.816C114.646 20.4 113.302 16.704 110.614 13.728C107.958 10.72 104.502 9.216 100.246 9.216C95.9901 9.216 92.5341 10.72 89.8781 13.728ZM127.789 42V7.68H130.093V39.888H145.885V42H127.789ZM186.81 42.576C181.818 42.576 177.53 40.88 173.946 37.488C170.362 34.064 168.57 29.856 168.57 24.864C168.57 19.84 170.138 15.632 173.274 12.24C176.41 8.816 180.426 7.104 185.322 7.104C189.162 7.104 193.05 7.744 196.986 9.024L196.362 10.944C192.522 9.792 188.842 9.216 185.322 9.216C181.13 9.216 177.706 10.72 175.05 13.728C172.394 16.736 171.066 20.416 171.066 24.768C171.066 29.12 172.602 32.832 175.674 35.904C178.778 38.944 182.49 40.464 186.81 40.464C190.586 40.464 193.85 39.888 196.602 38.736L197.322 40.368C196.106 41.072 194.506 41.616 192.522 42C190.57 42.384 188.666 42.576 186.81 42.576ZM208.338 37.44C205.17 34.016 203.586 29.808 203.586 24.816C203.586 19.824 205.17 15.632 208.338 12.24C211.538 8.816 215.57 7.104 220.434 7.104C225.298 7.104 229.33 8.816 232.53 12.24C235.73 15.632 237.33 19.824 237.33 24.816C237.33 29.808 235.73 34.016 232.53 37.44C229.33 40.864 225.298 42.576 220.434 42.576C215.57 42.576 211.538 40.864 208.338 37.44ZM210.066 13.728C207.41 16.704 206.082 20.4 206.082 24.816C206.082 29.232 207.41 32.944 210.066 35.952C212.754 38.96 216.21 40.464 220.434 40.464C224.69 40.464 228.146 38.96 230.802 35.952C233.49 32.944 234.834 29.232 234.834 24.816C234.834 20.4 233.49 16.704 230.802 13.728C228.146 10.72 224.69 9.216 220.434 9.216C216.178 9.216 212.722 10.72 210.066 13.728ZM271.113 38.688C268.905 41.28 265.545 42.576 261.033 42.576C256.521 42.576 253.145 41.264 250.905 38.64C248.697 36.016 247.593 32.432 247.593 27.888V7.68H249.897V27.888C249.897 36.336 253.593 40.56 260.985 40.56C268.409 40.56 272.121 36.336 272.121 27.888V7.68H274.425V27.888C274.425 32.464 273.321 36.064 271.113 38.688ZM286.695 42V7.68H304.215V9.696H288.999V22.32H302.919V24.288H288.999V42H286.695ZM312.473 30.096L307.529 42H305.081L319.529 7.44H320.873L335.369 42H332.777L327.833 30.096H312.473ZM320.057 11.28C320.025 11.312 319.961 11.504 319.865 11.856C319.417 13.232 318.985 14.4 318.569 15.36L313.289 28.128H327.017L321.737 15.408C320.617 12.976 320.057 11.6 320.057 11.28ZM342.477 42V7.68H344.781V39.888H360.573V42H342.477ZM368.603 37.44C365.435 34.016 363.851 29.808 363.851 24.816C363.851 19.824 365.435 15.632 368.603 12.24C371.803 8.816 375.835 7.104 380.699 7.104C385.563 7.104 389.595 8.816 392.795 12.24C395.995 15.632 397.595 19.824 397.595 24.816C397.595 29.808 395.995 34.016 392.795 37.44C389.595 40.864 385.563 42.576 380.699 42.576C375.835 42.576 371.803 40.864 368.603 37.44ZM370.331 13.728C367.675 16.704 366.347 20.4 366.347 24.816C366.347 29.232 367.675 32.944 370.331 35.952C373.019 38.96 376.475 40.464 380.699 40.464C384.955 40.464 388.411 38.96 391.067 35.952C393.755 32.944 395.099 29.232 395.099 24.816C395.099 20.4 393.755 16.704 391.067 13.728C388.411 10.72 384.955 9.216 380.699 9.216C376.443 9.216 372.987 10.72 370.331 13.728ZM419.198 35.04L430.718 7.68H433.166L418.382 42.288H417.038L402.206 7.68H404.798L416.318 34.944C417.118 36.896 417.614 38.24 417.806 38.976C418.062 37.952 418.526 36.64 419.198 35.04ZM439.223 30.096L434.279 42H431.831L446.279 7.44H447.623L462.119 42H459.527L454.583 30.096H439.223ZM446.807 11.28C446.775 11.312 446.711 11.504 446.615 11.856C446.167 13.232 445.735 14.4 445.319 15.36L440.039 28.128H453.767L448.487 15.408C447.367 12.72 446.807 11.344 446.807 11.28ZM453.623 3.12L446.615 5.664L444.983 5.184L453.335 0.575998L453.623 3.12Z" fill="black"/>
</svg>
